<?xml version="1.0" encoding="UTF-8"?>
<svg version="1.1" viewBox="0 0 2048 770" width="1803" height="678" xmlns="http://www.w3.org/2000/svg">
<path transform="translate(0)" d="m0 0h2048v770h-2048z" fill="#FEFEFE"/>
<path transform="translate(1340,127)" d="m0 0h11l5 6 1 3v145l2 5 11 6 1-7v-61l-4-7-5-4-2-4v-8l6-7 12-6 17-5 9 1 4 4 1 7 14-9 10-3h13l10 4 8 9 4 10 4 5 9-10 13-9 11-5 16-4 17-1-13-4-5-1h-8l-4 1-2 8-5-1-3-4-7 1-5-3-4-7v-13l4-8 8-6 6-2h10l14 3 22 7h4l3-7 4-3 7 1 5 5 4 10 4 7v8l-4 7-5 4-9 3 8 4 10 8 8 9 6 10 2 5 3-4 7-11 11-11 14-9 10-4 11-2h19l16 4 11 6 10 9 7 11 2-4 6-10 9-8 12-6 9-2h20l15 2h6l4-2h7l5 3 6 10 8 17 5 11 1 7-3 4-6-1-5-3-9-2-12-9-10-6-2-1h-13l-8 4-3 4 1 3 17 8 21 9 11 6 9 7 8 9 5 11 4 9v14l-4 9-5 7-10 7-12 5-5 1h-23l-21-4-6 4h-6l-3-3v-2l-7 1-6-3-5-8-2-6-7 6-10 7-11 5-13 3h-22l-12-3-20-8-11-7-11-11-4-6-4 5-6 8-9 9-14 8-12 4-6 1h-22l-12-3-10-4-14-6-10-8-7-7-6-10-5-13-2-14 1-18 2-10-7-1-6-3-10-4-4-2-6 4-5 8-3 11v49l5 9 2 6 4 6-1 5-4 3h-43l-5-3-1-1-8-1-16 6-4 1h-8l-4-3v-2l-4 1-9-3h-4l-11 5-8 2h-18l-14-4-8-3-14-7-2-2-6 9-9 5-8 2-9-1-9-4-10-4-3-2-10 6-11 4-6 1h-17l-12-3-20-8-8-5-2 4-8 6-17 6h-10l-4-3-11-3-3-2-4 1-11 5-7 2h-18l-12-4-12-5-9-6-8-9-5-10-3-12-1-9-1-47-4-7-2-1v132l5 6 1 7 5 6-1 5-5 3h-47l-5-3-1-1-10-2-5-4-1-2v-8l3-5 10-6 3-8v-15l-9 4-5 1h-19l-13-4-15-6-11-7-7-7-2-1-2 5-6 8-9 6-12 5-5 1h-23l-21-4-6 4h-6l-3-3v-2l-7 1-6-3-4-6v-2h-2l-1 6-5 5-7 2h-116l-6-3v-2l-10-1-6-5-1-8 3-6 10-9 2-7v-118l-3-8-9-7-3-6 1-9 5-4 6-2h114l9 3 6 7 8 18 5 22v9l-2 3-5 1-7-5h-6l-6-4-7-9-4-6-5-6-5-2h-29l-10 2-4 4-1 29 23-1 10-5 5-2 8 1 6 7 4 9 4 11 5 23v8l-3 3-7-1-3-3-8-1-6-4-8-10-4-4h-16l-7 3-2 3-1 61h35l11-2 6-4 7-12 6-11 6-5 6-1 6 3 3 4 9 1 6 4 14 13 14 9 13 4h8l5-2 2-2v-6l-4-5-19-10-23-10-10-6-10-9-5-7-3-10v-13l4-11 4-6 7-7 14-7 9-2h20l14 2h6l4-2h8l7 6 9 17 7 15 4-5 8-11 11-10 14-8 10-3 5-1h19l17 4 6 2 7-1 10-5h8l5 3 3 5 1 7 3 1 4-4 20-9 11-3h10l5 6 2 9 4 3 1 79 1 8 8 3 9-1 8-5 6-7 4-11v-44l-4-6-5-5-2-3 1-9 7-6 16-7 13-4h10l5 5 2 10 5 5v62l6-12 8-9 11-7 14-5 15-2h12l9 1-4-10-3-3-14 1-14 5-10 5-4-1-1-6-4 2h-7l-5-5-1-7 3-6 7-8 13-8 13-5 11-2h19l13 4 10 6 8 9 11 21 6 18 11 46v3h2l-5-16-1-6v-20l3-15 5-12 9-13 10-10 10-7 11-5 12-3h19l15 4v-19l-3-5-7-8-1-2v-7l4-6 14-7z" fill="#010101"/>
<path transform="translate(1126,387)" d="m0 0 7 1 4 4 1 2v9l4 1 2 2v9h19l5 3 2 4 1 8 5 4 7-7 13-8 14-5 13-2h11l11 2 10 4 9 7 8 11 8 16 5 13 12 50v4h6l3 1 1-3v-63l-3-6-7-7-1-2v-7l4-6 16-8 15-5 9-1 6 3 3 6v7l5 2 1 70 6-5h8l6 4 12 11 12 9 11 5 4 1h13l5-5-1-6-7-6-21-10-18-8-10-6-10-9-5-8-2-6-1-9 2-12 5-10 9-9 12-6 7-2 8-1 21 1 7 1h9l4-2 8 1 7 8 14 28 2 6v7l-2 2h-6l-5-3-10-3-15-11-7-4h-17l-6 4-2 2v4l19 9 18 8 15 8 12 11 10 19 2 6v11l-4 10-6 8-10 7-10 4-11 2h-13l-17-3-4-1h-7l-6 4-5-1-4-4h-7l-6-4-6-13-7-20v10l5 8 3 8 3 4v6l-4 3h-45l-5-4-4 1-8 4-4 1h-9l-7-3-7-2-8-4h-4l-15 7-8 2-12 1-15-2-26-10-4-3-4 2-7 6-10 5-8 2h-10l-9-2-10-4-12-6-8-9-5-12-1-5-1-58-4 3-9-1-5-3-11-4-3-3-6 2-6 7-4 12-1 8v41l2 5 3 4 3 9 3 4v6l-4 3h-44l-5-3-1-1-10-2-5-5-1-7 4-8 5-4 2-4 1-6v-58l-3-7-7-7-2-5 1-6 5-6 14-7 13-4h11l5 5 2 6 8-6 12-5 12-1 9 2 4 2 4-1 10-10 14-11 10-6z" fill="#010101"/>
<path transform="translate(573,129)" d="m0 0h114l9 3 6 7 8 18 5 22v9l-2 3-5 1-7-5h-6l-6-4-7-9-4-6-5-6-5-2h-29l-10 2-4 4-1 29 23-1 10-5 5-2 8 1 6 7 4 9 4 11 5 23v8l-3 3-7-1-3-3-8-1-6-4-8-10-4-4h-16l-7 3-2 3-1 61h35l11-2 6-4 7-12 6-11 6-5 6-1 6 3 3 4 9 1 6 4 14 13 14 9 13 4h8l5-2 2-2v-6l-4-5-19-10-23-10-10-6-10-9-5-7-3-10v-13l4-11 4-6 7-7 14-7 9-2h20l14 2h6l4-2h8l7 6 9 17 7 15 4-5 8-11 11-10 14-8 10-3 5-1h19l17 4 6 2 7-1 10-5h8l5 3 3 5 1 145 3 9 7 7 2 9 5 6-1 5-5 3h-47l-5-3-1-1-10-2-5-4-1-2v-8l3-5 10-6 3-8v-15l-9 4-5 1h-19l-13-4-15-6-11-7-7-7-2-1-2 5-6 8-9 6-12 5-5 1h-23l-21-4-6 4h-6l-3-3v-2l-7 1-6-3-4-6v-2h-2l-1 6-5 5-7 2h-116l-6-3v-2l-10-1-6-5-1-8 3-6 10-9 2-7v-118l-3-8-9-7-3-6 1-9 5-4z" fill="#010101"/>
<path transform="translate(571,359)" d="m0 0h53l8 4 2 3v9l5 2 1 6-4 5-8 7-3 10v116l5 6 4-2 4-5 1-4v-63l-2-6-4-2-4-5-1-2v-7l4-6 8-5 13-5 7-2h11l5 4 1 2v8l11-8 12-5 11-2h9l12 2 12 5 9 8 4 5 8-8 11-7 12-4 7-1h10l11 2 10 5 8 7 6 10 8 16 5 15 2 10 5-18 8-16 11-12 10-8 15-7 12-3 7-1h13l16 3 14 7 10 8 7 8 6 10 4 9 5 12 2 8v22l-4 16-8 14-9 10-11 8-11 5-11 3-7 1h-13l-15-3-15-6-14-7-10-9h-1l3 9 3 4v6l-4 3h-44l-5-4-11-2-5-6v-8l6-8h2l1-3v-10l-10-52-5-12-12 2-8 6-6 8-3 9-1 5v47l5 7 3 8 3 5v5l-4 3h-45l-5-4-10-2-5-4-1-2v-8l4-6 6-7 1-3v-55l-3-11-2-3h-8l-9 4-7 6-6 12-2 9v46l5 7 2 7 4 6-1 6-3 2h-45l-4-2v-2l-6-1-1 3-4 2h-51l-5-3v-2l-10-1-6-5-1-8 4-7 8-7 3-8v-117l-3-8-8-7-3-5v-9l4-5z" fill="#010101"/>
<path transform="translate(1500,143)" d="m0 0h10l14 3 22 7h4l3-7 4-3 7 1 5 5 4 10 4 7v8l-4 7-5 4-9 3 8 4 10 8 8 9 6 10 2 5 3-4 7-11 11-11 14-9 10-4 11-2h19l16 4 11 6 10 9 7 11 2-4 6-10 9-8 12-6 9-2h20l15 2h6l4-2h7l5 3 6 10 8 17 5 11 1 7-3 4-6-1-5-3-9-2-12-9-10-6-2-1h-13l-8 4-3 4 1 3 17 8 21 9 11 6 9 7 8 9 5 11 4 9v14l-4 9-5 7-10 7-12 5-5 1h-23l-21-4-6 4h-6l-3-3v-2l-7 1-6-3-5-8-2-6-7 6-10 7-11 5-13 3h-22l-12-3-20-8-11-7-11-11-4-6-4 5-6 8-9 9-14 8-12 4-6 1h-22l-12-3-10-4-14-6-10-8-7-7-6-10-5-13-2-14 1-18 2-10-7-1-3-3 10-5 4-6 2-14 4 5 2 2 9-10 13-9 11-5 16-4 17-1-13-4-5-1h-8l-4 1-2 8-5-1-3-4-7 1-5-3-4-7v-13l4-8 8-6z" fill="#010101"/>
<path transform="translate(354,241)" d="m0 0h20l18 3 16 5 19 9 14 10 13 12 11 14 8 14 5 11 6 20 2 17v14l-3 21-7 21-9 17-10 13-9 10-14 11-13 8-16 7-14 4-10 2-10 1h-14l-21-3-16-5-17-8-12-8-14-12-9-10-10-15-8-17-5-15-3-20v-18l3-20 6-18 8-16 10-14 12-13 14-11 14-8 13-6 18-5z" fill="#010101"/>
<path transform="translate(1400,412)" d="m0 0 21 1 7 1h9l4-2 8 1 7 8 14 28 2 6v7l-2 2h-6l-5-3-10-3-15-11-7-4h-17l-6 4-2 2v4l19 9 18 8 15 8 12 11 10 19 2 6v11l-4 10-6 8-10 7-10 4-11 2h-13l-17-3-4-1h-7l-6 4-5-1-4-4h-7l-6-4-6-13-8-24v-7l3-5 4-3h8l6 4 12 11 12 9 11 5 4 1h13l5-5-1-6-7-6-21-10-18-8-10-6-10-9-5-8-2-6-1-9 2-12 5-10 9-9 12-6 7-2z" fill="#000101"/>
<path transform="translate(920,424)" d="m0 0h20l16 5 11 8 7 8 7 14 2 8 1 15-2 13-4 11-6 10-7 8-11 8-12 5-15 3h-12l-14-3-12-6-10-9-4-5-5-10-3-14v-14l3-14 8-16 9-10 10-7 11-5z" fill="#000101"/>
<path transform="translate(1529,194)" d="m0 0 15 1 10 3 12 7 7 7 7 11 4 11 1 5v21l-4 14-6 11-11 12-11 7-14 5-7 1h-19l-12-3-10-5-10-9-4-5-5-10-3-12v-19l4-15 6-11 9-10 8-7 15-7 9-2z" fill="#000101"/>
<path transform="translate(147,162)" d="m0 0 5 2 6 7 15 23 13 22 14 27 5 11 48 13 5 2 2 3v6l-5 5-10-1-83-22-31-8h-2l8 17 10 26 7 25 3 14v7l-4 5-4 1-6-3-2-5-5-23-6-19-8-21-12-26-2-5-10-2-50-13-34-9-4-2-2-4 1-7 4-3 10 1 41 11 80 21 41 11-15-28-12-20-18-27v-7l4-4z" fill="#010101"/>
<path transform="translate(146,380)" d="m0 0h7l4 4v9l-5 23-6 20-11 28-4 8v2l76-20 42-11h6l5 5-1 7-3 3-48 13-3 3-12 25-12 22-15 24-10 14-3 3h-6l-5-5v-6l14-21 15-25 14-27v-1l-167 44-7-1-3-4v-6l5-5 54-14 41-11 4-6 13-29 11-33 6-28z" fill="#010101"/>
<path transform="translate(1657,194)" d="m0 0 13 1 10 3 8 4 9 8 7 14 1 6-5 4-21 8-13 4-28 10h-3v2l-13 5h-3l5 13 8 11 10 7 9 4 9 2h12l13-3 13-7 4-2-2 4-8 7-15 8-11 3h-24l-15-5-9-6-9-9-7-14-1-4v-23l-1-6 4-13 6-11 11-12 11-7 15-5z" fill="#010101"/>
<path transform="translate(923,412)" d="m0 0h13l16 3 14 7 10 8 7 8 6 10 4 9 5 12 2 8v22l-4 16-8 14-9 10-11 8-11 5-11 3-7 1h-13l-15-3-15-6-14-7-10-9-7-8-6-13-3-13v-23l4-15 8-16 11-12 10-8 15-7 12-3zm-3 12-15 4-13 7-10 9-7 10-5 11-3 14v14l3 14 6 12 10 10 10 6 13 4 6 1h12l15-3 12-5 13-10 8-10 6-13 2-8 1-15-2-13-4-11-7-11-10-9-10-5-11-3z" fill="#000101"/>
<path transform="translate(1341,139)" d="m0 0h4l1 144 4 10 9 6-4 4-11 5-8 2h-5l-2-2-1-4-1-26-2 1 2-18-1-19-3-14-4-10-7-9-7-6-8-4-5-1h-11l-13 4-9 8-7 14-2 9v23l4 16 5 10 7 9 8 6 11 4h13l11-4 7-5-2 4-8 7-12 6-15 2-16-3-11-6-7-6-7-11-4-11-2-14 1-15 4-14 6-11 11-12 10-7 12-5 16-2 14 2 11 5 11 7-1-40-4-10-5-6-2-1 1-3 20-8z" fill="#00BC66"/>
<path transform="translate(878,194)" d="m0 0 14 1 20 5h11l10-5h3l1 144 3 10 7 8v2h-44v-2l8-5 4-6 2-6 1-9v-53l-4 4 2-9 2-15-1-20-3-12-7-14-7-7-12-6-4-1h-12l-11 3-10 9-6 10-3 12-1 14 2 17 4 12 7 12 8 8 10 5 7 2h10l11-4 4-2-5 5-9 6-9 3h-20l-13-5-8-6-8-9-5-10-3-15v-15l3-14 4-10 7-10 6-7 11-8 12-5z" fill="#00BC66"/>
<path transform="translate(14,226)" d="m0 0 6 1 6 8 12 20 12 23 8 18 9 27 4 19 1 9v26l-4 24-6 20-10 25-12 24-12 20-7 10-6 2-5-3-2-3 1-7 11-18 9-16 12-25 8-22 5-21 2-16h-42l-5-3-1-2v-6l5-5h43l-4-24-8-26-9-20-10-20-12-20-5-8 1-7 3-3z" fill="#010101"/>
<path transform="translate(113,122)" d="m0 0h7l41 18 35 15 136 59 13 6 3 4v6l-4 4h-7l-26-11-25-11-30-13-1 1 13 25 11 25v7l-5 4h-6l-5-6-8-18-10-21-13-23-4-6-99-43-16-7-4-4v-7z" fill="#010101"/>
<path transform="translate(269,464)" d="m0 0h7l4 4v7l-9 21-10 21-5 9 9-3 41-18 30-13 5-1 5 3 2 2v6l-5 5-25 11-49 21-34 15-60 26-26 11-3 1h-33l2-4 32-14 39-17 35-15 9-4 12-21 11-21 13-29z" fill="#010101"/>
<path transform="translate(664,140)" d="m0 0 25 1 2 4h-27l-8-1h-27l-13 2-6 5-2 5v38l4 8 6 3 6 1h20l12-3 6-4h3l4 15 3 13v6l-5-5-7-8-6-5-8-4-5-1h-18l-8 2-5 4-2 6v70l3 7 9 4 5 1h42l11-4 7-6 8-14 5-9 2-1-1 18-3 7-6 8-7 5h-107l-3-2 6-5h2l2-4 4-10 1-8v-109l-2-12-4-8-9-7v-2z" fill="#00BC66"/>
<path transform="translate(208,282)" d="m0 0 7 1 3 4 6 21 5 25 2 23v17l-2 22-6 29-4 14-4 4-6 1-5-4-1-5 6-23 4-22 2-18h-127l-5-4v-8l5-4h127l-4-29-6-25-3-12 3-5z" fill="#010101"/>
<path transform="translate(341,403)" d="m0 0h47l12 19 6 10-8 14-12 19-1 2-12 2h-19l-8-1-8-11-12-19-3-4 1-5 10-15z" fill="#FEFEFE"/>
<path transform="translate(439,342)" d="m0 0 4 2 10 11 9 11 8 9-3 15-5 15-5 9-35 9h-4l-16-26-1-5 13-40 2-3z" fill="#FEFEFE"/>
<path transform="translate(290,344)" d="m0 0 19 4 5 1 14 42-1 7-14 21-3 4-11-2-29-8-6-13-4-13-1-11 22-22 7-8z" fill="#FEFEFE"/>
<path transform="translate(920,424)" d="m0 0h20l16 5 11 8 7 8 7 14 2 8 1 15-2 13-4 11-6 10-7 8-11 8-12 5-15 3h-12l-14-3-12-6-10-9-4-5-5-10-3-14v-14l3-14 8-16 9-10 10-7 11-5zm-6 3-10 3-9 7-6 10-3 7-2 15 1 18 4 15 7 14 9 11 11 7 6 2h18l9-4 9-8 5-9 3-10 1-14-2-16-4-13-8-16-10-11-8-5-9-3z" fill="#00BC66"/>
<path transform="translate(1529,194)" d="m0 0 15 1 10 3 12 7 7 7 7 11 4 11 1 5v21l-4 14-6 11-11 12-11 7-14 5-7 1h-19l-12-3-10-5-10-9-4-5-5-10-3-12v-19l4-15 6-11 9-10 8-7 15-7 9-2zm-16 4-9 4-8 7-6 10-3 9-1 7v14l2 15 6 16 7 11 10 10 11 5 4 1h14l8-3 8-6 6-7 5-12 1-5v-22l-4-17-8-16-7-9-8-7-11-5z" fill="#00BC66"/>
<path transform="translate(576,370)" d="m0 0h44l2 2-7 6-4 6-3 11v117l2 9 6 9 6 5v2h-49l1-3 8-7 4-8 2-12v-107l-2-12-4-8-8-8z" fill="#00BC66"/>
<path transform="translate(927,443)" d="m0 0h7l7 6 8 13 5 16 1 7v16l-3 11-6 8-7 4-4 1h-7l-10-3-8-7-5-6-3-12-1-8v-12l3-14 5-10 8-7z" fill="#FEFEFE"/>
<path transform="translate(1526,214)" d="m0 0h11l9 10 6 12 3 9 2 14v11l-3 12-6 8-6 4-10 2-9-2-8-5-8-9-3-11-1-7v-18l3-12 7-11 7-5z" fill="#FEFEFE"/>
<path transform="translate(318,267)" d="m0 0 5 1 31 12 3 2v25l-19 14-18 13-11-1-14-4-3-8-7-27 2-5 11-10 15-10z" fill="#FEFEFE"/>
<path transform="translate(409,267)" d="m0 0 5 2 10 6 9 7 8 7 3 4-1 9-6 25-23 7h-5l-13-10-14-10-9-7v-26l31-12z" fill="#FEFEFE"/>
<path transform="translate(364,320)" d="m0 0 11 7 16 12 9 7-3 11-10 30h-44l-4-10-9-28 1-5 17-12z" fill="#FEFEFE"/>
<path transform="translate(1294,213)" d="m0 0h7l8 9 4 9 3 16v21l-4 11-7 8-10 4-12-1-9-6-5-6-3-12v-22l4-14 6-8 7-6 5-2z" fill="#FEFEFE"/>
<path transform="translate(886,213)" d="m0 0h7l8 9 4 10 2 12v20l-3 12-6 9-5 4-4 2h-11l-10-5-8-9-3-16v-11l3-16 6-11 7-6 7-3z" fill="#FEFEFE"/>
<path transform="translate(1500,143)" d="m0 0h10l14 3 22 7h4l3-7 4-3 7 1 5 5 4 10 4 7v8l-4 7-5 4-6 2h-8l-13-3-8-4-13-3h-8l-4 1-2 8-5-1-3-4-7 1-5-3-4-7v-13l4-8 8-6z" fill="#000101"/>
<path transform="translate(1759,194)" d="m0 0 20 2h15l5-1 4 7h-8l-21-4-4-1h-16l-10 5-5 8v8l3 7 4 5 10 6 15 7 18 8 13 7 10 9 4 9v7l-3 9-7 8-9 6-13 4h-19l-20-4-7 1-4 3h-3l-10-28 1-4 15 14 14 9 12 5 3 1h18l8-4 4-5 2-5v-7l-3-8-7-7-16-8-26-12-12-7-7-8-3-6v-14l4-8 4-5 10-6 7-2z" fill="#00BC66"/>
<path transform="translate(753,194)" d="m0 0 21 2h15l5-1 3 5v2h-7l-21-4-5-1h-15l-10 5-4 5-1 3v10l5 8 8 6 21 10 18 8 11 6 10 9 3 6 1 8-2 9-6 8-9 7-11 4-4 1h-19l-21-4-6 1-5 3h-2l-9-24-1-5 2-2 8 8 14 11 12 6 9 3h18l8-4 5-8 1-8-2-7-7-8-21-11-18-8-13-7-9-8-4-8-1-8 2-9 6-9 9-6 9-3z" fill="#00BC66"/>
<path transform="translate(1397,424)" d="m0 0h17l15 2h8l7-2 4 7h-9l-27-5h-10l-11 4-5 6-2 5 1 10 6 8 11 7 25 11 16 8 9 6 7 8 2 5v11l-5 10-9 8-8 4-16 3-15-1-15-3h-9l-5 3-3-1-7-19-3-9 1-3 8 8 11 9 13 8 12 4 5 1h10l9-3 5-5 3-5v-11l-5-8-7-6-46-22-9-7-6-9-1-4v-10l4-9 6-7 10-5z" fill="#00BC66"/>
<path transform="translate(1657,194)" d="m0 0 13 1 10 3 8 4 9 8 7 14 1 6-5 4-21 8-3-1 6-4 2-3v-9l-5-12-8-9-9-5-4-1h-12l-10 3-9 6-7 11-3 8-1 7v14l2 10v4l13-4 4 1-13 5h-3l5 13 8 11 10 7 9 4 9 2h12l13-3 13-7 4-2-2 4-8 7-15 8-11 3h-24l-15-5-9-6-9-9-7-14-1-4v-23l-1-6 4-13 6-11 11-12 11-7 15-5z" fill="#00BC66"/>
<path transform="translate(1718,246)" d="m0 0 4 1 8 7 10 6 27 12 12 6 8 7 1 4-3 6-6 2h-8l-13-4-11-7-12-11-10-8h-10l-4 3-6 1-8 6-10 7-10 4-4 1h-15l-11-4-8-7 1-2 44-16 30-12z" fill="#FEFEFE"/>
<path transform="translate(1126,399)" d="m0 0h1l-1 27h32l-1 4h-18l-13-1v78l2 11 4 6 5 4 10 2 10-2 6-2-6 7-6 4-11 3-13-1-10-5-6-9-2-6-1-7v-57l1-26-16-1 4-6 13-12 14-10z" fill="#00BC66"/>
<path transform="translate(1172,444)" d="m0 0 2 4 4 4 5 1 7-2v6l7-1 16-7 8-2h12l4 5 3 8-2 1h-27l-16 4-15 8-8 8-6 12-2 9-1 10-7 5-5 2h-8l-1-2v-52l1-20h27z" fill="#FEFEFE"/>
<path transform="translate(707,424)" d="m0 0h17l10 3 6 4 8 9 6 16 1 1 3-3-3 15v45l3 12 8 10v1h-41l2-4 6-7 3-12v-47l-2-14-7-14-5-4-7-3-8-1-12 2-8 4-4 3 2-4 7-6 8-4z" fill="#00BC66"/>
<path transform="translate(1219,424)" d="m0 0h18l10 3 9 6 6 8 5 12 5 19 11 45 4 8 8 5 2 2-5 4-7 3h-9l-5-3-3-4-5-18h-1l-2-16-5-17-3-3v-2l-6-1-1-2 11 2-7-22-5-10-4-5-10-5-5-2-17 1-15 5-2-1 9-6 14-5z" fill="#00BC66"/>
<path transform="translate(792,424)" d="m0 0h16l11 4 7 6 7 14 5 18 10 51 4 10 8 9v1h-40l6-8 3-7v-8l-10-53-5-15-6-8-6-4-6-2h-11l-10 3-8 5 2-4 9-7 9-4z" fill="#00BC66"/>
<path transform="translate(1145,195)" d="m0 0h22l11 4 8 7 8 16 4 13 12 51 5 10 6 4 4 1-1 3-9 5-10 1-6-3-4-6-3-13v-4h-2l-2-14-5-17-4-5-6-3 4-1 5 1-1-8-5-15-6-11-5-4-9-4-4-1h-13l-15 4-6 2 4-4 12-6z" fill="#00BC66"/>
<path transform="translate(989,194)" d="m0 0h1l1 75 3 16 6 10 8 5 7 2h9l10-3 8-6 5-4-2 4-7 7-14 8-7 2h-17l-10-4-9-8-5-10-3-13-1-47-3-12-6-8-2-1v-2l13-6z" fill="#00BC66"/>
<path transform="translate(1073,194)" d="m0 0h1l1 8v78l2 9 6 7 5 3-1 3-16 7-3 1h-8l-2-3-1-8v-11l-1-10-4 4 4-17v-41l-3-9-8-9 4-3 17-7z" fill="#01BC67"/>
<path transform="translate(1335,424)" d="m0 0h2l1 89 2 10 3 6 6 7v1h-35l-5-2 6-8 3-7 1-6v-57l-3-12-8-9 3-3 14-6z" fill="#00BC66"/>
<path transform="translate(1394,195)" d="m0 0h4v38l5-9 1 3-2 8v52l3 10 7 9v2h-36l-1-3-2-1 5-5 3-6 1-4v-67l-4-9-5-6-2-1v-2l14-6z" fill="#00BC66"/>
<path transform="translate(1025,424)" d="m0 0h1l1 15v23l5-9 1 3-2 8v54l3 9 7 8v2h-41l6-7 4-8 1-4v-66l-4-10v-2l-4-2-3-4 12-6z" fill="#00BC66"/>
<path transform="translate(664,424)" d="m0 0h2l1 39 6-11 1 3-3 9-1 8v43l2 9 6 9 3 4h-41l2-4 5-6 3-7 1-8v-57l-3-10-4-6-5-5 12-6z" fill="#00BC66"/>
<path transform="translate(1324,360)" d="m0 0h10l7 3 5 5 9 18v9l-6 9-8 6-6 2h-7l-8-4-9-2-9-8-2-6v-8l4-10 10-10z" fill="#010101"/>
<path transform="translate(34,119)" d="m0 0 7 1 9 10 13 17 10 13 14 20 15 23 1 7-4 5h-7l-5-5-20-30-14-19-10-13-11-13-3-5v-6z" fill="#010101"/>
<path transform="translate(1357,142)" d="m0 0 5 3v54l-1 2v8l3 5 5 4 3 6v61l-2 7-4-1-8-5-2-5v-124z" fill="#00BC66"/>
<path transform="translate(93,513)" d="m0 0 6 1 3 3 1 5-6 11-8 12-14 20-16 21-4 5-2 1h-19l6-8 13-17 14-19 22-33z" fill="#010101"/>
<path transform="translate(1249,228)" d="m0 0h1v28l4 16 5 10 7 9 8 6 11 4h13l11-4 7-5-2 4-8 7-12 6-15 2-16-3-11-6-7-6-6-9-1-6v-25l4-15z" fill="#00BC66"/>
<path transform="translate(841,227)" d="m0 0h1l-1 19 2 17 4 12 7 12 8 8 10 5 7 2h10l11-4 4-2-5 5-9 6-9 3h-20l-13-5-8-6-8-9-2-7-1-7v-15l3-15 5-12z" fill="#00BC66"/>
<path transform="translate(885,455)" d="m0 0 1 4-1 16 2 17 5 15 8 13 5 6 11 7 11 3 3 3-3 1h-12l-14-3-12-6-10-9-4-5-2-8-1-8v-11l3-15 6-14z" fill="#00BC66"/>
<path transform="translate(1487,226)" d="m0 0 1 2-1 7v14l2 15 6 16 7 11 9 9 11 5 8 3 2 2h-19l-12-3-10-5-10-9-4-5-3-13v-16l3-14 6-14z" fill="#00BC66"/>
<path transform="translate(1231,488)" d="m0 0h15l5 18v6l-5 6-9 5-4 1h-13l-8-3-3-3v-13l4-8 8-6z" fill="#FEFEFE"/>
<path transform="translate(1165,258)" d="m0 0 9 1 5 20-2 6-7 6-7 3-5 1h-8l-9-3-4-3-1-3v-8l3-8 7-7 11-4z" fill="#FEFEFE"/>
<path transform="translate(762,212)" d="m0 0h13l12 7 12 9 9 2 7 5-1 10-1 11-4-2-10-7-16-8-25-11-8-5 2-5 5-4z" fill="#FEFEFE"/>
<path transform="translate(1140,242)" d="m0 0h10v1l-13 3-9 6-5 6-3 12 1 12 6 12 7 6 9 4 13 2h7l-3 2-8 2h-17l-11-3-10-5-7-8-4-8-1-11 2-9 5-8 7-7 12-6z" fill="#08BE6A"/>
<path transform="translate(1218,471)" d="m0 0 2 1-9 3-10 6-5 6-3 8v15l4 10 7 8 10 5 9 2h13l-2 2-15 3-14-1-10-3-10-6-6-7-3-10-1-1v-12l4-9 4-6 8-6 8-4 11-3z" fill="#08BE6A"/>
<path transform="translate(993,459)" d="m0 0 3 4 4 14v22l-4 16-8 14-9 10-11 8-11 5-11 3-7 1h-13l-15-3-5-2v-1h25l18-4 14-7 11-9 10-13 6-13 3-11 1-8v-14z" fill="#00BC66"/>
<path transform="translate(633,375)" d="m0 0 5 1 2 3-1 6-11 10-3 10v117l-4-2-2-5-1-6v-111l2-8 4-6 7-6z" fill="#00BC66"/>
<path transform="translate(947,198)" d="m0 0 3 1v10l3 5v133l-4-4-2-7z" fill="#00BC66"/>
<path transform="translate(588,163)" d="m0 0 3 3 2 5 1 6v114l-3 12-4 5h-11l-3-2 6-5h2l2-4 4-10 1-8z" fill="#FEFEFE"/>
<path transform="translate(588,393)" d="m0 0 3 3 2 5 1 7v111l-3 12-4 6h-14l1-3 8-7 4-8 2-12z" fill="#FEFEFE"/>
<path transform="translate(708,298)" d="m0 0h2l4 10-2 9-5 5-7 2h-116l-6-3v-2l111-1 9-2 6-5z" fill="#00BC66"/>
<path transform="translate(1472,503)" d="m0 0 3 3 3 8v11l-4 10-6 8-10 7-10 4-11 2h-13l-17-3-4-1h-7l-6 4-5-1-3-5 5-4 8 1 16 3h14l13-2 11-4 10-7 8-9 4-11z" fill="#00BC66"/>
<path transform="translate(1658,213)" d="m0 0h7l6 7 3 10-20 8-20 7h-2l1-9 6-12 9-8z" fill="#FEFEFE"/>
<path transform="translate(1826,274)" d="m0 0h2l4 9v14l-4 9-5 7-10 7-12 5-5 1h-23l-21-4-6 4h-6l-3-3v-3l5-3 9 1 10 2h25l12-3 10-5 8-6 7-10 3-10z" fill="#00BC66"/>
<path transform="translate(1362,213)" d="m0 0 6 4 4 7v61l-2 7-4-1-4-3z" fill="#FEFEFE"/>
<path transform="translate(1590,279)" d="m0 0 3 3 3 7-7 12-12 12-14 8-12 4-6 1h-22l-12-3-5-2v-1h30l16-4 15-8 12-11 7-10z" fill="#00BC66"/>
<path transform="translate(1714,237)" d="m0 0 4 4 2 5-18 8-29 11-33 12-4-2-2-5 56-21 21-9z" fill="#00BC66"/>
<path transform="translate(1664,199)" d="m0 0h18l9 5 8 9 5 11 1 6-5 4-21 8-3-1 6-4 2-3v-9l-5-12-8-9-7-4z" fill="#00BC66"/>
<path transform="translate(920,424)" d="m0 0h20l13 4-4 1h-19l-4-1h-12l-10 3-8 6-6 10-5 10-6 10-5 16-1 7v11l2 13h-2l-5-14-1-7v-14l3-14 8-16 9-10 10-7 11-5z" fill="#FEFEFE"/>
<path transform="translate(1529,194)" d="m0 0 15 1 10 3v1h-41l-9 4-8 7-9 17-6 10-4 11-2 11v16l1 10-2-2-4-12-1-5v-19l4-15 6-11 9-10 8-7 15-7 9-2z" fill="#FEFEFE"/>
<path transform="translate(701,442)" d="m0 0h11l6 3v2l-10 2-8 4-7 8-5 12-1 6-1 46-4-4-2-9v-39l2-11 5-10 7-7z" fill="#00BC66"/>
<path transform="translate(820,292)" d="m0 0 4 5 2 4-7 11-9 7-11 5-8 2h-23l-21-4-6 4h-6l-3-3v-3l4-3 10 1 10 2h25l12-3 11-6 10-9z" fill="#00BC66"/>
<path transform="translate(878,194)" d="m0 0 14 1 16 4v1l-20-1-4-1h-12l-11 3-10 9-6 10-4 9-7 14-3 11-1 7v15l1 10-3-4-3-10-1-7v-15l3-14 4-10 7-10 6-7 11-8 12-5z" fill="#FEFEFE"/>
<path transform="translate(1288,194)" d="m0 0 18 2 5 2v1h-14l-5-1h-11l-13 4-9 8-7 14-6 11-5 12-2 9v29l-2-2-4-13-1-16 2-14 5-13 7-11 9-9 11-7 10-4z" fill="#FEFEFE"/>
<path transform="translate(1169,430)" d="m0 0 5 2 2 4-4 9-2 1h-25l-2-1v73l-4-2-2-4-1-8v-19l1-44 23-1 6-2 2-5z" fill="#00BC66"/>
<path transform="translate(788,442)" d="m0 0 10 2 3 3-13 4-9 8-5 10-2 9-1 47-4-4-1-3-1-12v-34l2-11 6-11 6-5z" fill="#00BC66"/>
<path transform="translate(1721,278)" d="m0 0 7 6 8 7 13 9 11 5 6 2h18l8-4 4-5 3-9 4 4 1 2v7l-12 6-8 2h-19l-20-4-7 1-4 3h-3l-10-28z" fill="#04BD68"/>
<path transform="translate(717,279)" d="m0 0 7 6 13 11 12 7 12 4h18l8-4 5-8 2-6 4 4 1 2v6l-9 6-11 3h-19l-21-4-6 1-5 3h-2l-9-24-1-5z" fill="#06BD6A"/>
<path transform="translate(1366,507)" d="m0 0 7 6 10 9 14 9 10 4 9 2h10l9-3 5-5 3-5 1-6 5 5v8l-8 5-10 3-13 1-16-2-9-2h-9l-5 3-3-1-7-19-3-9z" fill="#02BC67"/>
<path transform="translate(1712,294)" d="m0 0h2l3 10-8 8-11 7-13 5-9 2h-22l-12-3-5-2v-1h30l12-3 14-6 12-9z" fill="#00BC66"/>
<path transform="translate(1423,217)" d="m0 0h6l5 5-8 6-5 9-2 9v50l-4-2-3-9v-47l3-11 6-9z" fill="#00BC66"/>
<path transform="translate(1657,194)" d="m0 0 13 1 10 3v1h-18l-4-1h-12l-10 3-9 6-7 11-4 9-8 17-3 15v15l1 9-3-4-2-7v-23l-1-6 4-13 6-11 11-12 11-7 15-5z" fill="#FEFEFE"/>
<path transform="translate(625,220)" d="m0 0h14l8 3 2 2-15 1-7 3-2 3-1 60-2 1-4-4v-65l2-3z" fill="#00BC66"/>
<path transform="translate(1285,208)" d="m0 0 11 2 4 3-15 3-6 4-6 7-4 9-2 8v22l1 9-3-3-4-13-1-7v-16l3-11 5-9 8-6z" fill="#00BC66"/>
<path transform="translate(876,208)" d="m0 0 12 2 3 3-14 3-9 6-6 10-3 10-1 8v11l2 14-3-3-4-12-1-5v-21l3-10 5-8 6-5 4-2z" fill="#00BC66"/>
<path transform="translate(1383,224)" d="m0 0 4 4 2 10v54l-2 10-3 6h-8l-1-3-2-1 5-5 3-6 1-4z" fill="#FEFEFE"/>
<path transform="translate(1349,428)" d="m0 0 5 2 1 95-3-1-3-6-1-8v-56z" fill="#00BC66"/>
<path transform="translate(1517,209)" d="m0 0h9l8 3 1 2-12 2-6 3-5 5-5 8-3 12v18l2 14-3-3-4-12-2-14v-9l3-14 6-9 5-4z" fill="#00BC66"/>
<path transform="translate(918,438)" d="m0 0 9 1 6 3v1l-14 3-8 6-5 8-3 10-1 7v12l2 16-3-3-4-13-1-5v-22l3-10 6-8 5-4z" fill="#00BC66"/>
<path transform="translate(1052,446)" d="m0 0 7 1 4 4-8 6-4 6-3 10-1 8v44l-5-5-1-5v-48l2-9 5-8z" fill="#00BC66"/>
<path transform="translate(1438,194)" d="m0 0 10 2 5 4 2 4v8l-3 5-4 1-6-4-6-5-8-3-8 1-5 2v-3l8-7 9-4z" fill="#00BC66"/>
<path transform="translate(1063,424)" d="m0 0h11l7 4 3 8-1 7-3 4h-5l-9-8-7-3h-9l-7 2 3-5 9-6z" fill="#00BC66"/>
<path transform="translate(699,270)" d="m0 0h1l-1 18-3 7-6 8-7 5h-54l-2-3 40-1 11-4 7-6 8-14 5-9z" fill="#FEFEFE"/>
<path transform="translate(651,453)" d="m0 0 4 4 2 7v60l-3 10-2 3h-12l2-4 5-6 3-7 1-8z" fill="#FEFEFE"/>
<path transform="translate(1012,454)" d="m0 0 3 3 2 5v65l-4 10h-13l6-7 4-8 1-4z" fill="#FEFEFE"/>
<path transform="translate(1319,454)" d="m0 0 4 4 2 8v59l-3 10-2 2h-6l-5-2 6-8 3-7 1-6z" fill="#FEFEFE"/>
<path transform="translate(1086,198)" d="m0 0 5 3 1 2v85l-4-1-2-4z" fill="#00BC66"/>
<path transform="translate(735,455)" d="m0 0 2 1 4 12 1 7v50l-3 10-2 2h-12l2-4 6-7 3-12v-47z" fill="#FEFEFE"/>
<path transform="translate(630,154)" d="m0 0h27l10 3 1 2-29 1-10 2-4 4-1 29-5-1-1-2v-34l4-3z" fill="#00BC66"/>
<path transform="translate(753,194)" d="m0 0 21 2h15l5-1 3 5v2h-7l-21-4-5-1h-15l-10 5-4 5-9 15-2 14-3-1-3-10 2-12 6-9 9-6 9-3z" fill="#FEFEFE"/>
<path transform="translate(1759,194)" d="m0 0 20 2h15l5-1 4 7h-8l-21-4-4-1h-16l-10 5-7 10-6 10-1 3-1 11h-2l-3-6v-14l4-8 4-5 10-6 7-2z" fill="#FEFEFE"/>
<path transform="translate(1397,424)" d="m0 0h17l15 2h8l7-2 4 7h-9l-27-5h-10l-11 4-5 6-8 12-3 10-1 8-3-3-2-6v-10l4-9 6-7 10-5z" fill="#FEFEFE"/>
<path transform="translate(272,309)" d="m0 0 2 1 5 19v5l-18 18-1 2h-2l2-15 6-18z" fill="#FEFEFE"/>
<path transform="translate(1140,242)" d="m0 0h10v1l-13 3-9 6-6 7-5 4-6 10-3 12v9l-4-5-2-9 1-11 5-10 8-8 12-6z" fill="#FEFEFE"/>
<path transform="translate(1e3 198)" d="m0 0 5 3 1 86-3-3-3-10z" fill="#00BC66"/>
<path transform="translate(1649,208)" d="m0 0h7l8 4v1l-14 3-8 6-6 9-3 10-2 5-4 1-1-4 1-14 4-9 7-8 6-3z" fill="#00BC66"/>
<path transform="translate(1109,445)" d="m0 0h5v84l-3-4-2-6-1-7v-57z" fill="#FEFEFE"/>
<path transform="translate(1218,471)" d="m0 0 2 1-9 3-10 6-5 6-7 6-6 10-2 7-1 13-2-3-2-7-1-1v-12l4-9 4-6 8-6 8-4 11-3z" fill="#FEFEFE"/>
<path transform="translate(664,140)" d="m0 0 25 1 2 4h-27l-8-1h-27l-8 1-38 1-4 1-6-4v-2z" fill="#FEFEFE"/>
<path transform="translate(1222,483)" d="m0 0h14l9 3 1 2-15 1-12 4-5 4-4 8-1 12-4-4-2-5v-11l3-6 6-5z" fill="#00BC66"/>
<path transform="translate(1147,254)" d="m0 0h18l8 3v2l-16 1-11 4-7 8-2 6v10l-4-4-3-9 1-9 4-6 8-5z" fill="#00BC66"/>
<path transform="translate(1184,307)" d="m0 0 3 1 3 5-1 3-14 7-12 3h-17l-12-3-5-2v-1h25l15-4 11-6z" fill="#00BC66"/>
<path transform="translate(963,468)" d="m0 0 2 1 5 15 2 14v9l-2 11-5 6-11 8-12 5-8 2-6-1-1-2 13-1 9-4 8-7 5-9 3-10 1-14-2-16z" fill="#FEFEFE"/>
<path transform="translate(1257,536)" d="m0 0h2l4 8-8 5-9 4-8 2-12 1-15-2-8-3v-1h20l16-4 14-7z" fill="#00BC66"/>
<path transform="translate(1565,239)" d="m0 0 3 4 4 13 1 6v22l-3 7-10 9-14 7-7 2h-9l-1-2 15-2 9-5 7-7 5-11 2-8v-22z" fill="#FEFEFE"/>
<path transform="translate(1350,379)" d="m0 0 4 4 1 3v9l-6 9-8 6-6 2h-7l-8-4 3-2 10-3 8-6 5-6 3-9z" fill="#00BC66"/>
<path transform="translate(1172,533)" d="m0 0 7 6-2 4-7 6-10 5-8 2h-10l-9-2-4-3 18-2 11-4 11-8z" fill="#00BC66"/>
<path transform="translate(922,306)" d="m0 0h2v38l-2 9-4 6h-15v-2l8-5 4-6 2-6 1-9 1-21z" fill="#FEFEFE"/>
<path transform="translate(1505,154)" d="m0 0 14 2 21 7 4 1h10l5-2-1 4-5 4h-12l-30-9h-11l-6 2 1-4 5-4z" fill="#06BD6A"/>
<path transform="translate(959,361)" d="m0 0 5 4 1 6-3 3-3 1h-47l-5-3-1-2 43-1 7-3z" fill="#00BC66"/>
<path transform="translate(1099,303)" d="m0 0h2l5 6-1 4-7 6-15 6-4 1h-10l-4-3v-2l14-4 16-8 3-3z" fill="#00BC66"/>
<path transform="translate(1126,399)" d="m0 0h1v7l-2 5-10 8-10 9h-12l4-6 13-12 14-10z" fill="#FEFEFE"/>
<path transform="translate(1046,307)" d="m0 0 2 3 2 4v3l-14 7-7 2h-18l-12-4v-1l20-1 13-4 13-8z" fill="#00BC66"/>
<path transform="translate(819,457)" d="m0 0 3 4 4 14 9 49v8l-2 5h-13l6-8 3-7v-8l-10-53z" fill="#FEFEFE"/>
<path transform="translate(1316,308)" d="m0 0h2l3 9-8 5-13 4h-18l-14-4v-1l23-1 13-4 10-6h2z" fill="#00BC66"/>
<path transform="translate(1571,158)" d="m0 0 4 4 2 4v8l-4 7-5 4-6 2h-8l-13-3-3-3h12l10-3 6-4 4-8z" fill="#00BC66"/>
<path transform="translate(1424,309)" d="m0 0 5 5 1 6-5 4h-43l-5-3-1-2 37-1 7-2 3-5z" fill="#00BC66"/>
<path transform="translate(692,539)" d="m0 0 3 1 3 5-1 6-3 2h-45l-4-2-1-3 40-1 6-2z" fill="#00BC66"/>
<path transform="translate(1360,539)" d="m0 0 4 2 2 3v6l-4 3h-45l-4-3v-2l39-1 6-3z" fill="#00BC66"/>
<path transform="translate(777,539)" d="m0 0 4 2 2 4v5l-4 3h-45l-4-3v-2l39-1 6-3z" fill="#00BC66"/>
<path transform="translate(1053,539)" d="m0 0 5 5v6l-4 3h-44l-5-3v-2l40-1 6-4z" fill="#00BC66"/>
<path transform="translate(629,545)" d="m0 0 5 1 5 2-1 3-4 2h-51l-5-3v-2l47-1z" fill="#00BC66"/>
<path transform="translate(667,145)" d="m0 0h25l4 13 2 10v7l-5-5-6-9-7-8-13-7z" fill="#00BC66"/>
<path transform="translate(871,539)" d="m0 0 4 2 2 3v6l-4 3h-44l-4-3v-2l38-1 6-3z" fill="#00BC66"/>
<path transform="translate(285,433)" d="m0 0 18 4 6 2 13 20-2 1-13-7-12-9-8-7z" fill="#FEFEFE"/>
<path transform="translate(1057,225)" d="m0 0 3 3 2 5v43l-3 11-2 1-1-10-4 4 4-17z" fill="#FEFEFE"/>
<path transform="translate(1236,304)" d="m0 0 4 2 3 2-1 6-4 5-9 5-8 2-9-1-6-3v-1l16-4 8-5 5-6z" fill="#03BC68"/>
<path transform="translate(1211,442)" d="m0 0h14l6 3 1 2-16 2-15 6-6 3-5-1-1-5 3-3 11-5z" fill="#00BC66"/>
<path transform="translate(1144,212)" d="m0 0 10 1 6 3v1l-18 3-16 7-6 2-3-3v-5l13-6z" fill="#00BC66"/>
<path transform="translate(972,224)" d="m0 0 3 3 3 9 1 49 1 9-2-1-4-12-1-6z" fill="#FEFEFE"/>
<path transform="translate(456,312)" d="m0 0 3 3 5 11 5 18v6l-5-5-12-13 1-8z" fill="#FEFEFE"/>
<path transform="translate(905,310)" d="m0 0h2v10l-10 5-5 1h-19l-13-4-2-2h26l12-4z" fill="#00BC66"/>
<path transform="translate(438,434)" d="m0 0 4 1-11 11-15 10-6 3-2-1 11-18 7-3z" fill="#FEFEFE"/>
<path transform="translate(351,257)" d="m0 0h25l10 2-2 2-16 6-4 1-21-8 2-2z" fill="#FEFEFE"/>
<path transform="translate(916,230)" d="m0 0 3 3 4 15 1 10v12l-3 16-2 3-1-11-4 4 2-9 2-15-1-20z" fill="#FEFEFE"/>
<path transform="translate(1324,372)" d="m0 0h9l4 4-10 5-7 8-3 6-4-2-1-1v-8l3-5 7-6z" fill="#FEFEFE"/>
<path transform="translate(1325,231)" d="m0 0 3 4 4 16 1 11v14l-3 12-2 2-1-12-2 1 2-18-1-19z" fill="#FEFEFE"/>
<path transform="translate(1336,376)" d="m0 0 2 1v7l-5 7-10 5h-5l-1-3 5-8 8-7z" fill="#00BC66"/>
<path transform="translate(1219,424)" d="m0 0h18l10 3 2 2h-14l-27 3-15 5-2-1 9-6 14-5z" fill="#FEFEFE"/>
<path transform="translate(1145,195)" d="m0 0h22l8 3v1l-36 3-15 4-6 2 4-4 12-6z" fill="#FEFEFE"/>
<path transform="translate(1335,424)" d="m0 0h2v7l-22 10-4-2-3-4 14-7z" fill="#FEFEFE"/>
<path transform="translate(1073,194)" d="m0 0h1v8l-21 9h-3l-5-6 18-8z" fill="#FEFEFE"/>
<path transform="translate(989,194)" d="m0 0h1v8l-19 8-5 1-5-4v-2l13-6z" fill="#FEFEFE"/>
<path transform="translate(1341,139)" d="m0 0h4v7l-20 8-4 1-5-4 1-3 20-8z" fill="#FEFEFE"/>
<path transform="translate(678,203)" d="m0 0 3 3 4 13 4 19v8l-3 3-7-1-3-4 5-4 2-4-1-12-4-17z" fill="#00BC66"/>
<path transform="translate(792,424)" d="m0 0h16l9 3v1l-19 2-17 3-9 4-5 3 2-4 9-7 9-4z" fill="#FEFEFE"/>
<path transform="translate(664,208)" d="m0 0 4 1 4 18v6l-5-5-7-8-6-5-5-4 12-2z" fill="#00BC66"/>
<path transform="translate(1358,313)" d="m0 0 4 1 6 4-2 2-14 5-4 1h-8l-4-3v-2l18-6z" fill="#00BC66"/>
<path transform="translate(705,148)" d="m0 0 3 4 4 12 3 15v9l-2 3-5 1-6-5 6-7 1-9-4-19z" fill="#00BC66"/>
<path transform="translate(1063,424)" d="m0 0h11l6 3v1l-13 3-7 4-13 2-4 1 3-5 9-6z" fill="#FEFEFE"/>
<path transform="translate(1438,194)" d="m0 0 10 2 2 1v2l-10 2-8 4-4 1-8 1-5 2v-3l8-7 9-4z" fill="#FEFEFE"/>
<path transform="translate(707,424)" d="m0 0h17l10 3v1l-20 2-7 1-12 2-8 4-4 3 2-4 7-6 8-4z" fill="#FEFEFE"/>
<path transform="translate(664,424)" d="m0 0h2v8l-16 6-5 2-6-5 3-3 15-6z" fill="#FEFEFE"/>
<path transform="translate(1394,195)" d="m0 0h4v7l-17 7-4 2-6-5v-2l14-6z" fill="#FEFEFE"/>
<path transform="translate(576,370)" d="m0 0h44l2 2-4 3h-30l-9 2-5-6z" fill="#FEFEFE"/>
<path transform="translate(845,448)" d="m0 0 3 4 5 15 3 14 1 16 4 16 6 11v3l-5-4-4-8-11-56z" fill="#00BC66"/>
<path transform="translate(752,207)" d="m0 0h9l10 3 2 2-11 1-8 4-4 6-5-4-1-6 5-5z" fill="#00BC66"/>
<path transform="translate(662,199)" d="m0 0h3l2 9-10 3h-11l-5-1-14-1-1-2 18-1 12-3z" fill="#FEFEFE"/>
<path transform="translate(1401,437)" d="m0 0h14l9 4v1l-14 1-6 4-3 5-4-2-2-2v-6l4-4z" fill="#00BC66"/>
<path transform="translate(1025,424)" d="m0 0h1v8l-15 6-6 2-5-6 12-6z" fill="#FEFEFE"/>
<path transform="translate(1757,207)" d="m0 0h10l11 4v1l-11 1-8 4-4 5-4-2-2-3 1-5 4-4z" fill="#00BC66"/>
<path transform="translate(1278,450)" d="m0 0 3 4 5 15 11 46-1 4-3-5-9-37-6-24z" fill="#00BC66"/>
<path transform="translate(1205,219)" d="m0 0 3 4 6 18 11 46-1 3-3-4-16-64z" fill="#00BC66"/>
<path transform="translate(1701,288)" d="m0 0v3l-9 8-11 6h-11l-11-3-2-2h15l13-3 13-7z" fill="#FEFEFE"/>
<path transform="translate(1095,440)" d="m0 0h2v19l-5 4-9-1-4-4 9-4 4-5z" fill="#00BC66"/>
<path transform="translate(1425,428)" d="m0 0 23 3 7 14-1 3-13-10-16-9z" fill="#00BC66"/>
<path transform="translate(1781,199)" d="m0 0 22 3 7 14v2l-5-2-9-7-15-9z" fill="#00BC66"/>
<path transform="translate(775,199)" d="m0 0 10 1 13 2 6 12 1 4-5-2-12-9-13-7z" fill="#00BC66"/>
<path transform="translate(1327,169)" d="m0 0h2l4 10v28l-5-2z" fill="#FEFEFE"/>
<path transform="translate(1297,545)" d="m0 0 5 1 7 2-4 4-9 3h-9l-7-3-1-2 14-3z" fill="#00BC66"/>
<path transform="translate(794,289)" d="m0 0 4 4 1 2v6l-9 6-11 3h-15l-1-2 16-1 8-4 5-8z" fill="#FEFEFE"/>
<path transform="translate(1799,289)" d="m0 0 4 4 1 2v7l-12 6-8 2h-15l-1-2 16-1 8-4 4-5z" fill="#FEFEFE"/>
<path transform="translate(1444,518)" d="m0 0 5 5v8l-8 5-10 3-13 1-5-2 3-1h10l9-3 5-5 3-5z" fill="#FEFEFE"/>
<path transform="translate(1503,171)" d="m0 0 9 1 13 4v1h-13l-4 1-2 8-5-1-2-3 2-10z" fill="#00BC66"/>
<path transform="translate(1466,204)" d="m0 0 4 5 1 5-7 12-3 7h-6l-5-4 10-5 4-6z" fill="#00BC66"/>
<path transform="translate(933,195)" d="m0 0h3v9l-7 2-7-1-10-3v-1l11-1z" fill="#FEFEFE"/>
<path transform="translate(1466,442)" d="m0 0 2 3 4 10v7l-2 2h-6l-5-3v-2l6-5 1-2z" fill="#00BC66"/>
<path transform="translate(1821,214)" d="m0 0 2 3 4 10-1 6-2 2-6-1-5-3 7-7z" fill="#00BC66"/>
<path transform="translate(1505,154)" d="m0 0 14 2 9 3-4 1h-13l-11 1-6 2 1-4 5-4z" fill="#FEFEFE"/>
<path transform="translate(816,214)" d="m0 0 2 3 2 4-1 6-3 8-5-2-3-3 6-5 1-2z" fill="#00BC66"/>
<path transform="translate(1315,292)" d="m0 0v3l-9 8-7 4-10-3-2-2 15-2 10-5z" fill="#FEFEFE"/>
<path transform="translate(1046,289)" d="m0 0v3l-8 8-12 7-5-1-4-3 15-3 9-6z" fill="#FEFEFE"/>
<path transform="translate(1259,493)" d="m0 0h2l3 8 4 17-1 6-2-4-2-6h-1l-2-16z" fill="#FEFEFE"/>
<path transform="translate(1187,263)" d="m0 0 3 3 5 19v9l-2-1-1-9h-2l-2-14z" fill="#FEFEFE"/>
<path transform="translate(697,292)" d="m0 0 1 4-3 9-2 2-9 1 5-5 6-8z" fill="#00BC66"/>
<path transform="translate(1138,403)" d="m0 0 4 1 2 2v9h-6z" fill="#00BC66"/>
<path transform="translate(1600,246)" d="m0 0 2 3v23l-2-2-1-6v-16z" fill="#00BC66"/>
<path transform="translate(902,296)" d="m0 0 2 1-10 8-6 2-7-3v-1l12-2 8-4z" fill="#FEFEFE"/>
<path transform="translate(1143,426)" d="m0 0h15l-1 4h-13z" fill="#FEFEFE"/>
<path transform="translate(1685,227)" d="m0 0 3 3 2 7-9 4-5 1 5-4 3-4z" fill="#FEFEFE"/>
<path transform="translate(1252,459)" d="m0 0 3 4 4 13v2l-10-2-4-2 2-1 9 2-4-13z" fill="#FEFEFE"/>
<path transform="translate(1180,231)" d="m0 0 3 4 4 13-10-1-4-3 9 1-1-8z" fill="#FEFEFE"/>
<path transform="translate(1161,526)" d="m0 0 2 1-9 8-7-3v-2l10-2z" fill="#FEFEFE"/>
<path transform="translate(1366,507)" d="m0 0 6 5v9l3 9-1 3-8-23z" fill="#FEFEFE"/>
<path transform="translate(857,507)" d="m0 0h2l5 12 4 6-1 2-5-4-4-8z" fill="#36CA86"/>
<path transform="translate(1558,162)" d="m0 0 1 3-5 4-10-3v-1l10-1z" fill="#FEFEFE"/>
<path transform="translate(717,279)" d="m0 0 4 3v8l1 7-2-2-4-14z" fill="#FEFEFE"/>
<path transform="translate(1721,278)" d="m0 0 5 4v8l1 7-2-3-4-12z" fill="#FEFEFE"/>
</svg>
